<?xml version="1.0" encoding="UTF-8"?>
<!DOCTYPE svg PUBLIC "-//W3C//DTD SVG 1.1//EN" "http://www.w3.org/Graphics/SVG/1.1/DTD/svg11.dtd">
<!-- Creator: CorelDRAW (Versión de evaluación) -->
<svg xmlns="http://www.w3.org/2000/svg" xml:space="preserve" width="210mm" height="297mm" version="1.1" style="shape-rendering:geometricPrecision; text-rendering:geometricPrecision; image-rendering:optimizeQuality; fill-rule:evenodd; clip-rule:evenodd"
viewBox="0 0 21000 29700"
 xmlns:xlink="http://www.w3.org/1999/xlink"
 xmlns:xodm="http://www.corel.com/coreldraw/odm/2003">
 <defs>
  <style type="text/css">
   <![CDATA[
    .fil2 {fill:#61BF1A}
    .fil1 {fill:#636B70}
    .fil0 {fill:url(#id0)}
   ]]>
  </style>
  <linearGradient id="id0" gradientUnits="userSpaceOnUse" x1="5114.74" y1="20761.2" x2="5360.45" y2="23262.15">
   <stop offset="0" style="stop-opacity:1; stop-color:white"/>
   <stop offset="0.101961" style="stop-opacity:1; stop-color:white"/>
   <stop offset="0.301961" style="stop-opacity:1; stop-color:#F4F5F5"/>
   <stop offset="1" style="stop-opacity:1; stop-color:#E0E1E2"/>
  </linearGradient>
 </defs>
 <g id="Capa_x0020_1">
  <metadata id="CorelCorpID_0Corel-Layer"/>
  <g id="_1473262825568">
   <polygon class="fil0" points="10428.29,23220.72 -302.41,21269.22 -302.41,21055.39 4953.36,20802.57 10777.59,21353.13 10752.05,21473.2 10450.69,22765.93 10432.86,22945.8 10460.41,23163.83 10478.9,23201.28 "/>
   <path class="fil1" d="M8345.34 18858.65c1177.99,-637.21 2306.2,-1241.76 3390.14,-1803.11 1070.43,-554.41 2089.18,-1067.46 3060.16,-1539.14 885.7,-430.14 1743.78,-855.07 2533.95,-1224.99 772.8,-360.21 1499.2,-710.76 2195.91,-1015.49 127.6,311.55 252.88,642.9 355.58,996.52 -723.14,251.76 -1482.31,523.01 -2267.79,821.76 -812.51,308.94 -1661.89,641.59 -2545.28,999.13 -957.82,388.3 -1953.93,813.93 -2992.47,1269.08 -1046.73,458.71 -2133.21,953.44 -3259.23,1471.59 -162.15,4.26 -291.88,12.74 -470.97,24.65zm2656.57 1489.78c902.95,-520.93 1780.65,-1024.14 2632.63,-1497.48 846.58,-470.5 1662.59,-912.61 2450.68,-1327.7 734.05,-386.58 1445.45,-760.24 2130.43,-1102.01 654.21,-326.25 1286.44,-641.24 1892.18,-931.28 26.79,334.73 29.99,681.84 8.18,1038.55 -630.87,259.22 -1287.16,532.01 -1958.21,823.23 -705.3,305.87 -1434.24,633.42 -2182.57,979.76 -796.39,368.2 -1622.59,761.54 -2466.33,1176.27 -847.72,416.74 -1716.94,862.65 -2610.05,1319.57 35.32,-171.39 66.32,-319.55 103.06,-478.91zm290.69 -1595.98c866.08,-470.02 1703.37,-923.16 2515.52,-1347.31 801.67,-418.7 1573.58,-821.87 2319.3,-1192.81 693.33,-344.91 1360.46,-689.47 2003.54,-992.85 619.96,-292.58 1210.53,-570.65 1782.72,-831.06 84.51,310.84 150.35,638.57 184.01,985.27l1.37 15.17c-608.76,231.6 -1237.14,473.87 -1889.22,736.59 -671.23,270.07 -1370.13,557.8 -2086.51,864.13 -764.98,327.08 -1555.56,678.57 -2371.63,1049.03 -820.75,372.54 -1665.02,768.13 -2535.43,1178.94 25.48,-154.56 49.48,-310.54 76.33,-465.1zm-651.96 3232.73c1144.32,-708.32 2248.47,-1388.67 3319.91,-2017.05 1029.3,-603.96 2027.3,-1154.7 2978.31,-1675.75 0,0 0,0 0,0 -35.44,282.4 -79.06,586.6 -125.64,861.23 -965.11,474.23 -1970.65,975.48 -2998.28,1517.99 -1067.47,563.66 -2161.25,1172.95 -3287.14,1798.66 43.85,-182.47 74.85,-327.67 112.84,-485.08zm6427.95 -3761.37c555.84,-301.35 1098.28,-588.49 1622.41,-861.28 483.83,-251.75 958.84,-492.01 1417.24,-719.76 -29.63,390.55 -89.37,792.24 -181.05,1200.98 -143.71,27.44 -232.31,44.81 -378.75,70.71 -102.95,18.13 -221.71,40.18 -352.03,64.95 -681.48,106.26 -1284.2,188.1 -2127.82,244.4 0,0 0,0 0,0zm-6116.05 4951.69c1022.84,-675.55 2020.08,-1331.42 3000.9,-1939.24 945.2,-585.7 1870.78,-1126.37 2761.05,-1644.34 -83.27,312.09 -155.33,582.21 -257.98,912.67 -717.15,382.31 -1451.85,776.95 -2199.76,1196.66 -764.57,428.89 -1539.09,886.06 -2330.8,1357.15 -303.25,43.73 -648.76,81.37 -973.41,117.1zm2585.99 -446.2c941.17,-617.88 1859.64,-1199.62 2753.94,-1752.02 -131.15,341.6 -234.03,635.02 -393.45,982.95 -121.32,68.57 -244.17,138.68 -364.06,208.97 -407.44,135.71 -1252.96,382.19 -1996.43,560.1z"/>
   <path class="fil2" d="M18844.32 12995.6c-736.36,310.66 -1526.52,651.79 -2347.15,1017.8 -841.26,375.44 -1725.06,784.54 -2651,1224.63 -1019.58,484.66 -2093.8,1016.32 -3225.33,1590.35 -689.18,349.6 -1396.2,715.14 -2121,1095.08 -480.1,251.7 -1201.58,636.14 -1697.32,900.05 -15.53,-486.92 -19.91,-1012.65 -21.28,-1472.77 488.58,-210.57 1194.82,-532.31 1661.41,-727.83 655.52,-274.74 1351.64,-558.38 2002,-818.31 1084.53,-433.4 2119.46,-831.66 3110.89,-1190.97 908.93,-329.75 1781.41,-631.4 2617.16,-911.13 823.41,-275.69 1606.7,-517.37 2355.92,-749.99 88.54,9.37 219.75,24.84 315.7,43.09zm-2706.89 -1506.79c-602.47,231.13 -1231.74,472.87 -1892,732.03 -670.22,263.25 -1370.01,545.41 -2096.52,855.42 -785.96,335.67 -1602.74,700.14 -2453.48,1088.62 -457.93,208.85 -915.74,412 -1402.78,636.79 -422.67,195.16 -927.78,426.52 -1529.66,712.12 -7.11,-496.1 -12.62,-968.73 -7.11,-1453.99 380.95,-140.75 999.49,-379.58 1369.17,-514.11 506.53,-184.31 1003.17,-354.82 1489.9,-520.58 830.88,-282.86 1634.15,-547.3 2405.59,-784.36 721.06,-221.64 1416.47,-419.29 2086.63,-601.17 661.56,-179.63 1300.84,-346.4 1913.1,-504.22 39.53,124.99 76.27,240.73 117.16,353.45zm331.59 1207.51c-626.42,264.55 -1287.63,539.6 -1973.85,833.78 -696.29,298.28 -1422.81,619.25 -2174.16,964.17 -810.2,371.82 -1655.66,777.13 -2535.32,1204.54 -444.72,216.08 -898.44,439.03 -1360.64,668.62 -462.32,229.59 -1157.19,557.61 -1636.87,800.06 -5.69,-496.22 -18.32,-996.94 -14.35,-1471.23 438.56,-173.88 1094.14,-436.36 1518.88,-602 481.34,-187.81 953.74,-369.39 1416.83,-542.45 865.02,-323.16 1697.26,-626.48 2500.05,-902.05 749.22,-257.15 1476.39,-493.2 2175.41,-709.87 689.24,-213.65 1357.38,-413.13 1996.54,-602.71 26.61,115.62 61.93,248.37 87.48,359.14zm-763.21 -2400.97c-671.69,240.2 -1379.48,498.47 -2120.64,776.89 -786.61,295.61 -1612.58,633.36 -2483.05,990.66 0,0 0,0 0,0 -52.33,-268.4 -135.53,-644.43 -183.48,-931.39 864.78,-252.76 1691.93,-483.24 2481.74,-677.15 753.72,-185.02 1473.07,-352.68 2164.09,-508.55 46.7,124.99 96.01,235.64 141.34,349.54zm-4620.69 1775.43c-623.58,266.69 -1271.04,526.74 -1977.29,813.23 -799.77,331.16 -1469.21,612.31 -2350.35,985.91 -5.4,-527.57 -14.34,-925.58 7.46,-1396.08 0.95,-20.57 12.21,-224.61 23.41,-341.01 633.48,-76.98 1219.36,-97.84 1808.15,-121.84 865.02,-14.46 1468.33,8.89 2488.62,59.79 0,0 0,0 0,0zm3796.57 -2858.24c-598.15,202.86 -1228.66,411.59 -1886.32,639.75 -691.02,239.91 -1417.83,516.43 -2177,812.93 -66.2,-324.59 -129.79,-624.11 -190.3,-937.79 631.93,-165.17 1240.52,-318.37 1828.47,-449.34 567.4,-126.3 1118.79,-232.38 1647.78,-340 255.43,85.75 496.69,171.69 777.37,274.45zm-2196.62 -691.2c-682.9,220.17 -1398.28,465.05 -2147.38,738.08 -76.15,-337.1 -166.47,-747.38 -204.58,-1045.24 602.48,-7.83 1762.34,173.05 2351.96,307.16z"/>
  </g>
 </g>
</svg>
